{
    "asset" : {
        "generator" : "Khronos glTF Blender I/O v1.8.19",
        "version" : "2.0"
    },
    "scene" : 0,
    "scenes" : [
        {
            "name" : "Scene",
            "nodes" : [
                4
            ]
        }
    ],
    "nodes" : [
        {
            "name" : "Bone.001",
            "rotation" : [
                0,
                1.1920926823449918e-07,
                0,
                1
            ],
            "scale" : [
                1,
                0.9999999403953552,
                1
            ],
            "translation" : [
                0,
                2,
                0
            ]
        },
        {
            "children" : [
                0
            ],
            "name" : "Bone"
        },
        {
            "mesh" : 0,
            "name" : "Cube",
            "skin" : 0
        },
        {
            "mesh" : 1,
            "name" : "Cube.001",
            "skin" : 0
        },
        {
            "children" : [
                2,
                3,
                1
            ],
            "name" : "Armature"
        }
    ],
    "meshes" : [
        {
            "name" : "Cube.001",
            "primitives" : [
                {
                    "attributes" : {
                        "POSITION" : 0,
                        "NORMAL" : 1,
                        "TANGENT" : 2,
                        "TEXCOORD_0" : 3,
                        "JOINTS_0" : 4,
                        "WEIGHTS_0" : 5
                    },
                    "indices" : 6
                }
            ]
        },
        {
            "name" : "Cube.002",
            "primitives" : [
                {
                    "attributes" : {
                        "POSITION" : 8,
                        "NORMAL" : 9,
                        "TANGENT" : 10,
                        "TEXCOORD_0" : 11,
                        "JOINTS_0" : 12,
                        "WEIGHTS_0" : 13
                    },
                    "indices" : 14
                }
            ]
        }
    ],
    "skins" : [
        {
            "inverseBindMatrices" : 7,
            "joints" : [
                1,
                0
            ],
            "name" : "Armature"
        }
    ],
    "accessors" : [
        {
            "bufferView" : 0,
            "componentType" : 5126,
            "count" : 32,
            "max" : [
                1,
                4,
                1
            ],
            "min" : [
                -1,
                0,
                -1
            ],
            "type" : "VEC3"
        },
        {
            "bufferView" : 1,
            "componentType" : 5126,
            "count" : 32,
            "type" : "VEC3"
        },
        {
            "bufferView" : 2,
            "componentType" : 5126,
            "count" : 32,
            "type" : "VEC4"
        },
        {
            "bufferView" : 3,
            "componentType" : 5126,
            "count" : 32,
            "type" : "VEC2"
        },
        {
            "bufferView" : 4,
            "componentType" : 5121,
            "count" : 32,
            "type" : "VEC4"
        },
        {
            "bufferView" : 5,
            "componentType" : 5126,
            "count" : 32,
            "type" : "VEC4"
        },
        {
            "bufferView" : 6,
            "componentType" : 5123,
            "count" : 60,
            "type" : "SCALAR"
        },
        {
            "bufferView" : 7,
            "componentType" : 5126,
            "count" : 2,
            "type" : "MAT4"
        },
        {
            "bufferView" : 8,
            "componentType" : 5126,
            "count" : 24,
            "max" : [
                0.5,
                5.401692867279053,
                0.5
            ],
            "min" : [
                -0.5,
                4.401692867279053,
                -0.5
            ],
            "type" : "VEC3"
        },
        {
            "bufferView" : 9,
            "componentType" : 5126,
            "count" : 24,
            "type" : "VEC3"
        },
        {
            "bufferView" : 10,
            "componentType" : 5126,
            "count" : 24,
            "type" : "VEC4"
        },
        {
            "bufferView" : 11,
            "componentType" : 5126,
            "count" : 24,
            "type" : "VEC2"
        },
        {
            "bufferView" : 12,
            "componentType" : 5121,
            "count" : 24,
            "type" : "VEC4"
        },
        {
            "bufferView" : 13,
            "componentType" : 5126,
            "count" : 24,
            "type" : "VEC4"
        },
        {
            "bufferView" : 14,
            "componentType" : 5123,
            "count" : 36,
            "type" : "SCALAR"
        }
    ],
    "bufferViews" : [
        {
            "buffer" : 0,
            "byteLength" : 384,
            "byteOffset" : 0
        },
        {
            "buffer" : 0,
            "byteLength" : 384,
            "byteOffset" : 384
        },
        {
            "buffer" : 0,
            "byteLength" : 512,
            "byteOffset" : 768
        },
        {
            "buffer" : 0,
            "byteLength" : 256,
            "byteOffset" : 1280
        },
        {
            "buffer" : 0,
            "byteLength" : 128,
            "byteOffset" : 1536
        },
        {
            "buffer" : 0,
            "byteLength" : 512,
            "byteOffset" : 1664
        },
        {
            "buffer" : 0,
            "byteLength" : 120,
            "byteOffset" : 2176
        },
        {
            "buffer" : 0,
            "byteLength" : 128,
            "byteOffset" : 2296
        },
        {
            "buffer" : 0,
            "byteLength" : 288,
            "byteOffset" : 2424
        },
        {
            "buffer" : 0,
            "byteLength" : 288,
            "byteOffset" : 2712
        },
        {
            "buffer" : 0,
            "byteLength" : 384,
            "byteOffset" : 3000
        },
        {
            "buffer" : 0,
            "byteLength" : 192,
            "byteOffset" : 3384
        },
        {
            "buffer" : 0,
            "byteLength" : 96,
            "byteOffset" : 3576
        },
        {
            "buffer" : 0,
            "byteLength" : 384,
            "byteOffset" : 3672
        },
        {
            "buffer" : 0,
            "byteLength" : 72,
            "byteOffset" : 4056
        }
    ],
    "buffers" : [
        {
            "byteLength" : 4128,
            "uri" : "animated cube.bin"
        }
    ]
}
